<?xml version="1.0" encoding="utf-8"?><svg viewBox="0 0 41 40" xmlns="http://www.w3.org/2000/svg" xmlns:xlink="http://www.w3.org/1999/xlink"><style>:root>svg{display:none}:root>svg:target{display:block}</style><svg fill="none" viewBox="0 0 20 20" id="arrowdown" xmlns="http://www.w3.org/2000/svg"><path d="M16.25 7.5L10 13.75 3.75 7.5" stroke="#fff" stroke-width="2" stroke-linecap="round" stroke-linejoin="round"/></svg><svg fill="none" viewBox="0 0 26 26" id="coin" xmlns="http://www.w3.org/2000/svg"><circle cx="12.667" cy="13" r="12" stroke="#fff"/><path d="M12.634 5.8l-.095.324v9.408l.095.096 4.367-2.582L12.634 5.8z" fill="#fff"/><path d="M12.634 5.8l-4.367 7.246 4.367 2.582V5.8zM12.634 16.455l-.054.065v3.352l.054.157 4.37-6.155-4.37 2.58z" fill="#fff"/><path d="M12.634 20.029v-3.574l-4.367-2.58 4.367 6.154zM12.634 15.628l4.367-2.582-4.367-1.985v4.567zM8.267 13.046l4.367 2.582V11.06l-4.367 1.985z" fill="#fff"/></svg><svg fill="none" viewBox="0 0 24 24" id="crown" xmlns="http://www.w3.org/2000/svg"><path d="M4.23 18.377a.752.752 0 00.936.55 25.678 25.678 0 0113.663-.002.75.75 0 00.935-.55l2.39-10.154a.75.75 0 00-1.035-.857L16.377 9.47a.75.75 0 01-.96-.32l-2.761-4.97a.75.75 0 00-1.312 0l-2.76 4.97a.75.75 0 01-.961.32L2.88 7.363a.75.75 0 00-1.035.857l2.386 10.157zM9 15.157c1.995-.21 4.005-.21 6 0" stroke="#fff" stroke-width="2" stroke-linecap="round" stroke-linejoin="round"/></svg><svg fill="none" viewBox="0 0 24 24" id="dribbble" xmlns="http://www.w3.org/2000/svg"><path d="M12 21a9 9 0 100-18 9 9 0 000 18zM6.659 19.244a14.992 14.992 0 0114.34-7.17" stroke="#fff" stroke-width="2" stroke-linecap="round" stroke-linejoin="round"/><path d="M17.628 4.978A14.97 14.97 0 016 10.5a15.08 15.08 0 01-2.827-.266" stroke="#fff" stroke-width="2" stroke-linecap="round" stroke-linejoin="round"/><path d="M8.056 3.908a14.993 14.993 0 017.405 12.938c.001 1.226-.148 2.447-.443 3.636" stroke="#fff" stroke-width="2" stroke-linecap="round" stroke-linejoin="round"/></svg><svg fill="none" viewBox="0 0 24 24" id="facebook" xmlns="http://www.w3.org/2000/svg"><path d="M12 21a9 9 0 100-18 9 9 0 000 18z" stroke="#fff" stroke-width="2" stroke-linecap="round" stroke-linejoin="round"/><path d="M15.75 8.25h-1.5A2.25 2.25 0 0012 10.5V21M9 13.5h6" stroke="#fff" stroke-width="2" stroke-linecap="round" stroke-linejoin="round"/></svg><svg fill="none" viewBox="0 0 25 24" id="heart" xmlns="http://www.w3.org/2000/svg"><path d="M12.333 20.25S2.958 15 2.958 8.625a4.876 4.876 0 019.375-1.878h0a4.876 4.876 0 019.375 1.878c0 6.375-9.375 11.625-9.375 11.625z" stroke="#fff" stroke-width="2" stroke-linecap="round" stroke-linejoin="round"/></svg><svg fill="none" viewBox="0 0 20 20" id="history" xmlns="http://www.w3.org/2000/svg"><path d="M10 6.25V10M13.248 11.875L10 10M5.612 7.79H2.487V4.665" stroke="#fff" stroke-width="2" stroke-linecap="round" stroke-linejoin="round"/><path d="M5.139 14.861a6.875 6.875 0 100-9.722L2.487 7.79" stroke="#fff" stroke-width="2" stroke-linecap="round" stroke-linejoin="round"/></svg><svg fill="none" viewBox="0 0 24 24" id="linkedin" xmlns="http://www.w3.org/2000/svg"><path d="M19.5 3.75h-15a.75.75 0 00-.75.75v15c0 .414.336.75.75.75h15a.75.75 0 00.75-.75v-15a.75.75 0 00-.75-.75zM11.25 10.5v6M8.25 10.5v6" stroke="#fff" stroke-width="2" stroke-linecap="round" stroke-linejoin="round"/><path d="M11.25 13.125a2.625 2.625 0 015.25 0V16.5" stroke="#fff" stroke-width="2" stroke-linecap="round" stroke-linejoin="round"/><path d="M8.25 8.625a1.125 1.125 0 100-2.25 1.125 1.125 0 000 2.25z" fill="#fff"/></svg><svg fill="none" viewBox="0 0 24 24" id="load" xmlns="http://www.w3.org/2000/svg"><path d="M7.484 9.349h-4.5v-4.5" stroke="#fff" stroke-width="2" stroke-linecap="round" stroke-linejoin="round"/><path d="M17.834 6.166a8.25 8.25 0 00-11.668 0L2.984 9.348M16.516 14.651h4.5v4.5" stroke="#fff" stroke-width="2" stroke-linecap="round" stroke-linejoin="round"/><path d="M6.166 17.833a8.25 8.25 0 0011.668 0l3.182-3.182" stroke="#fff" stroke-width="2" stroke-linecap="round" stroke-linejoin="round"/></svg><svg fill="none" viewBox="0 0 24 24" id="location" xmlns="http://www.w3.org/2000/svg"><path d="M12 12.75a3 3 0 100-6 3 3 0 000 6z" stroke="#fff" stroke-width="2" stroke-linecap="round" stroke-linejoin="round"/><path d="M19.5 9.75c0 6.75-7.5 12-7.5 12s-7.5-5.25-7.5-12a7.5 7.5 0 0115 0v0z" stroke="#fff" stroke-width="2" stroke-linecap="round" stroke-linejoin="round"/></svg><svg fill="none" viewBox="0 0 24 24" id="mail" xmlns="http://www.w3.org/2000/svg"><path d="M3 5.25h18V18a.75.75 0 01-.75.75H3.75A.75.75 0 013 18V5.25z" stroke="#fff" stroke-width="2" stroke-linecap="round" stroke-linejoin="round"/><path d="M21 5.25l-9 8.25-9-8.25" stroke="#fff" stroke-width="2" stroke-linecap="round" stroke-linejoin="round"/></svg><svg fill="none" viewBox="0 0 24 24" id="phone" xmlns="http://www.w3.org/2000/svg"><path d="M8.67 11.701a7.908 7.908 0 003.66 3.645.743.743 0 00.735-.056l2.347-1.565a.75.75 0 01.711-.065l4.391 1.882a.748.748 0 01.45.778 4.5 4.5 0 01-4.464 3.93A12.75 12.75 0 013.75 7.5a4.5 4.5 0 013.93-4.464.747.747 0 01.778.45l1.884 4.394a.751.751 0 01-.062.706L8.72 10.97a.743.743 0 00-.05.731v0z" stroke="#fff" stroke-width="2" stroke-linecap="round" stroke-linejoin="round"/></svg><svg fill="none" viewBox="0 0 24 24" id="plus" xmlns="http://www.w3.org/2000/svg"><path d="M3.75 12h16.5M12 3.75v16.5" stroke="#fff" stroke-width="2" stroke-linecap="round" stroke-linejoin="round"/></svg><svg fill="none" viewBox="0 0 24 24" id="rocket" xmlns="http://www.w3.org/2000/svg"><path d="M8.818 17.303c-1.06 3.182-5.303 3.182-5.303 3.182s0-4.242 3.182-5.303M18.364 9.879L12 16.243 7.757 12l6.364-6.364c2.41-2.41 4.82-2.386 5.847-2.233a.746.746 0 01.629.629c.153 1.027.177 3.437-2.233 5.847z" stroke="#fff" stroke-width="2" stroke-linecap="round" stroke-linejoin="round"/><path d="M17.303 10.94v6.053a.75.75 0 01-.22.53l-3.031 3.032a.75.75 0 01-1.266-.383L12 16.242M13.06 6.697H7.008a.75.75 0 00-.53.22L3.445 9.947a.75.75 0 00.383 1.266l3.93.786" stroke="#fff" stroke-width="2" stroke-linecap="round" stroke-linejoin="round"/></svg><svg fill="none" viewBox="0 0 20 20" id="search" xmlns="http://www.w3.org/2000/svg"><path d="M9.063 15.625a6.562 6.562 0 100-13.125 6.562 6.562 0 000 13.125zM13.703 13.703L17.5 17.5" stroke="#fff" stroke-width="2" stroke-linecap="round" stroke-linejoin="round"/></svg><svg fill="none" viewBox="0 0 24 24" id="timer" xmlns="http://www.w3.org/2000/svg"><path d="M12 20.25a8.25 8.25 0 100-16.5 8.25 8.25 0 000 16.5z" stroke="#fff" stroke-width="2" stroke-miterlimit="10"/><path d="M12 12l3.712-3.712M9.75.75h4.5" stroke="#fff" stroke-width="2" stroke-linecap="round" stroke-linejoin="round"/></svg><svg fill="none" viewBox="0 0 20 20" id="wallet" xmlns="http://www.w3.org/2000/svg"><path d="M3.125 5v10a1.25 1.25 0 001.25 1.25h12.5a.624.624 0 00.625-.625v-8.75a.625.625 0 00-.625-.625h-12.5A1.25 1.25 0 013.125 5zm0 0a1.25 1.25 0 011.25-1.25h10" stroke="#fff" stroke-width="2" stroke-linecap="round" stroke-linejoin="round"/><path d="M14 11.25a.063.063 0 11.125 0 .063.063 0 01-.125 0z" fill="#fff" stroke="#fff" stroke-width="2"/></svg><svg fill="none" viewBox="0 0 41 40" id="work-1" xmlns="http://www.w3.org/2000/svg"><path d="M6.375 30V10a2.5 2.5 0 002.5 2.5h25a1.25 1.25 0 011.25 1.25v17.5a1.25 1.25 0 01-1.25 1.25h-25a2.5 2.5 0 01-2.5-2.5z" fill="#fff"/><path d="M6.375 10v20a2.5 2.5 0 002.5 2.5h25a1.25 1.25 0 001.25-1.25v-17.5a1.25 1.25 0 00-1.25-1.25h-25a2.5 2.5 0 01-2.5-2.5zm0 0a2.5 2.5 0 012.5-2.5h20" stroke="#fff" stroke-width="2" stroke-linecap="round" stroke-linejoin="round"/><path d="M28.25 24.375a1.875 1.875 0 100-3.75 1.875 1.875 0 000 3.75z" fill="url(#rpaint0_linear_1036_3519)"/><defs><linearGradient id="rpaint0_linear_1036_3519" x1="28.253" y1="19.84" x2="25.873" y2="24.38" gradientUnits="userSpaceOnUse"><stop stop-color="#23D3A4"/><stop offset="1" stop-color="#5B49CF"/></linearGradient></defs></svg><svg fill="none" viewBox="0 0 41 40" id="work-2" xmlns="http://www.w3.org/2000/svg"><path d="M17.875 7.5h-10v10h10v-10z" stroke="#fff" stroke-width="2" stroke-linecap="round" stroke-linejoin="round"/><path d="M32.875 7.5h-10v10h10v-10z" fill="#fff" stroke="#fff" stroke-width="2" stroke-linecap="round" stroke-linejoin="round"/><path d="M17.875 22.5h-10v10h10v-10zM32.875 22.5h-10v10h10v-10z" stroke="#fff" stroke-width="2" stroke-linecap="round" stroke-linejoin="round"/></svg><svg fill="none" viewBox="0 0 41 40" id="work-3" xmlns="http://www.w3.org/2000/svg"><path d="M.688.063h39.874v39.874H.688V.063z" stroke="#fff" stroke-width=".125"/><path d="M34.375 7.5h-27.5c-.69 0-1.25.56-1.25 1.25v22.5c0 .69.56 1.25 1.25 1.25h27.5c.69 0 1.25-.56 1.25-1.25V8.75c0-.69-.56-1.25-1.25-1.25z" stroke="#fff" stroke-width="2" stroke-linecap="round" stroke-linejoin="round"/><path d="M5.625 31.25l7.866-10.92c.116-.105.254-.188.406-.244a1.372 1.372 0 01.956 0c.152.056.29.139.406.244l6.982 6.284c.116.104.254.187.406.243a1.372 1.372 0 00.956 0c.152-.056.29-.139.406-.244l3.232-2.909c.116-.104.254-.187.406-.243a1.372 1.372 0 01.956 0c.152.056.29.139.406.244l6.616 7.545" fill="#fff" stroke="#fff" stroke-width="2" stroke-linecap="round" stroke-linejoin="round"/><path d="M26.813 15.625a1.813 1.813 0 11-3.626 0 1.813 1.813 0 013.625 0z" fill="#fff" stroke="#fff" stroke-width=".125"/></svg><svg fill="none" viewBox="0 0 41 40" id="work-4" xmlns="http://www.w3.org/2000/svg"><path d="M8.375 21.81V32.5a1.25 1.25 0 001.25 1.25h22.5a1.25 1.25 0 001.25-1.25V21.81" stroke="#fff" stroke-width="2" stroke-linecap="round" stroke-linejoin="round"/><path d="M9.318 6.25h23.114a1.25 1.25 0 011.202.907L35.875 15h-30l2.241-7.843a1.25 1.25 0 011.202-.907z" fill="#fff" stroke="#fff" stroke-width="2" stroke-linecap="round" stroke-linejoin="round"/><path d="M15.875 15v2.5a5 5 0 11-10 0V15M25.875 15v2.5a5 5 0 11-10 0V15M35.875 15v2.5a5 5 0 11-10 0V15" stroke="#fff" stroke-width="2" stroke-linecap="round" stroke-linejoin="round"/></svg></svg>