<svg width="24" height="24" fill="none" xmlns="http://www.w3.org/2000/svg"><path d="M8.818 17.303c-1.06 3.182-5.303 3.182-5.303 3.182s0-4.242 3.182-5.303m11.667-5.303L12 16.243 7.757 12l6.364-6.364c2.41-2.41 4.82-2.386 5.847-2.233a.746.746 0 01.629.629c.153 1.027.177 3.437-2.233 5.847z" stroke="#fff" stroke-width="2" stroke-linecap="round" stroke-linejoin="round"/><path d="M17.303 10.94v6.053a.75.75 0 01-.22.53l-3.031 3.032a.75.75 0 01-1.266-.383L12 16.242m1.06-9.545H7.008a.75.75 0 00-.53.22l-3.033 3.03a.75.75 0 00.383 1.266l3.93.786" stroke="#fff" stroke-width="2" stroke-linecap="round" stroke-linejoin="round"/></svg>