<svg width="41" height="40" fill="none" xmlns="http://www.w3.org/2000/svg"><path d="M6.375 30V10a2.5 2.5 0 002.5 2.5h25a1.25 1.25 0 011.25 1.25v17.5a1.25 1.25 0 01-1.25 1.25h-25a2.5 2.5 0 01-2.5-2.5z" fill="#fff"/><path d="M6.375 10v20a2.5 2.5 0 002.5 2.5h25a1.25 1.25 0 001.25-1.25v-17.5a1.25 1.25 0 00-1.25-1.25h-25a2.5 2.5 0 01-2.5-2.5zm0 0a2.5 2.5 0 012.5-2.5h20" stroke="#fff" stroke-width="2" stroke-linecap="round" stroke-linejoin="round"/><path d="M28.25 24.375a1.875 1.875 0 100-3.75 1.875 1.875 0 000 3.75z" fill="url(#paint0_linear_1036_3519)"/><defs><linearGradient id="paint0_linear_1036_3519" x1="28.253" y1="19.84" x2="25.873" y2="24.38" gradientUnits="userSpaceOnUse"><stop stop-color="#23D3A4"/><stop offset="1" stop-color="#5B49CF"/></linearGradient></defs></svg>