<svg width="41" height="40" fill="none" xmlns="http://www.w3.org/2000/svg"><path d="M8.375 21.81V32.5a1.25 1.25 0 001.25 1.25h22.5a1.25 1.25 0 001.25-1.25V21.81" stroke="#fff" stroke-width="2" stroke-linecap="round" stroke-linejoin="round"/><path d="M9.318 6.25h23.114a1.25 1.25 0 011.202.907L35.875 15h-30l2.241-7.843a1.25 1.25 0 011.202-.907z" fill="#fff" stroke="#fff" stroke-width="2" stroke-linecap="round" stroke-linejoin="round"/><path d="M15.875 15v2.5a5 5 0 11-10 0V15m20 0v2.5a5 5 0 11-10 0V15m20 0v2.5a5 5 0 11-10 0V15" stroke="#fff" stroke-width="2" stroke-linecap="round" stroke-linejoin="round"/></svg>