<svg width="41" height="40" fill="none" xmlns="http://www.w3.org/2000/svg"><path d="M.688.063h39.874v39.874H.688V.063z" stroke="#fff" stroke-width=".125"/><path d="M34.375 7.5h-27.5c-.69 0-1.25.56-1.25 1.25v22.5c0 .69.56 1.25 1.25 1.25h27.5c.69 0 1.25-.56 1.25-1.25V8.75c0-.69-.56-1.25-1.25-1.25z" stroke="#fff" stroke-width="2" stroke-linecap="round" stroke-linejoin="round"/><path d="M5.625 31.25l7.866-10.92c.116-.105.254-.188.406-.244a1.372 1.372 0 01.956 0c.152.056.29.139.406.244l6.982 6.284c.116.104.254.187.406.243a1.372 1.372 0 00.956 0c.152-.056.29-.139.406-.244l3.232-2.909c.116-.104.254-.187.406-.243a1.372 1.372 0 01.956 0c.152.056.29.139.406.244l6.616 7.545" fill="#fff" stroke="#fff" stroke-width="2" stroke-linecap="round" stroke-linejoin="round"/><path d="M26.813 15.625a1.813 1.813 0 11-3.626 0 1.813 1.813 0 013.625 0z" fill="#fff" stroke="#fff" stroke-width=".125"/></svg>